<?xml version="1.0" standalone="no"?>
<!DOCTYPE svg PUBLIC "-//W3C//DTD SVG 20010904//EN"
 "http://www.w3.org/TR/2001/REC-SVG-20010904/DTD/svg10.dtd">
<svg version="1.0" xmlns="http://www.w3.org/2000/svg"
 width="898.000000pt" height="1280.000000pt" viewBox="0 0 898.000000 1280.000000"
 preserveAspectRatio="xMidYMid meet">
<metadata>
Created by potrace 1.15, written by Peter Selinger 2001-2017
</metadata>
<g transform="translate(0.000000,1280.000000) scale(0.100000,-0.100000)"
fill="#000000" stroke="none">
<path d="M6460 12723 c-879 -49 -1739 -369 -2354 -877 -93 -77 -261 -242 -365
-358 -35 -38 -51 -48 -84 -52 -23 -3 -105 -13 -182 -22 -543 -62 -1115 -252
-1575 -522 -881 -516 -1508 -1359 -1764 -2372 -32 -128 -94 -451 -116 -605
-29 -200 -21 -575 16 -809 8 -50 26 -174 40 -276 59 -433 128 -680 267 -955
233 -465 603 -783 1130 -974 78 -28 101 -40 102 -56 2 -11 6 -65 9 -120 18
-300 123 -745 236 -1006 83 -191 193 -340 290 -389 34 -18 61 -23 110 -23 48
1 72 -4 92 -18 53 -38 158 -80 211 -86 77 -8 153 19 262 91 101 68 305 264
430 416 286 346 657 904 916 1379 81 147 87 156 169 224 47 39 119 103 160
141 41 38 28 23 -30 -35 -58 -58 -123 -120 -145 -138 -65 -53 -3 -17 172 100
618 413 1099 655 1454 730 133 28 317 31 400 5 164 -49 323 -198 417 -390 95
-194 132 -384 139 -720 8 -377 -22 -699 -123 -1297 -77 -460 -110 -619 -130
-635 -69 -52 -200 -86 -389 -99 -171 -12 -370 -35 -434 -50 -35 -9 -100 -34
-144 -57 -252 -131 -435 -342 -584 -673 -74 -163 -205 -577 -188 -594 4 -3 11
3 17 14 55 102 266 205 513 251 137 25 461 31 603 10 254 -37 432 -117 507
-226 17 -25 38 -53 49 -63 60 -62 160 -362 201 -607 23 -133 31 -434 16 -568
-13 -112 -52 -305 -76 -372 -8 -23 -10 -40 -4 -40 5 0 57 30 116 66 607 375
829 645 923 1119 31 155 36 299 16 405 -22 119 -54 211 -152 442 -138 325
-171 446 -162 594 5 80 0 92 -53 120 l-35 19 78 225 c43 124 100 294 125 377
48 156 71 204 34 71 -47 -173 -152 -600 -148 -604 7 -8 177 238 268 389 170
280 307 553 429 852 29 72 86 196 126 277 464 928 704 2127 708 3548 1 339 1
348 -28 500 -222 1208 -793 2012 -1776 2505 -145 72 -328 151 -450 192 -82 28
-84 29 -147 108 -68 84 -153 247 -172 327 -14 58 -14 178 0 238 29 127 147
288 283 385 176 125 338 194 777 329 64 20 122 42 129 51 10 12 5 18 -33 34
-266 114 -707 176 -1097 154z m1677 -6000 c-3 -10 -5 -4 -5 12 0 17 2 24 5 18
2 -7 2 -21 0 -30z m10 -95 c-3 -7 -5 -2 -5 12 0 14 2 19 5 13 2 -7 2 -19 0
-25z"/>
</g>
</svg>
